<svg width="8" height="9" viewBox="0 0 8 9" id="perfil" fill="none" xmlns="http://www.w3.org/2000/svg">
<path d="M7.66162 6.24829C7.66162 7.08374 7.39587 7.76013 6.87244 8.2583C6.3551 8.75061 5.6709 9 4.83899 9H0.884277V1.95203C0.918335 1.95325 0.952393 1.95386 0.98645 1.95386C1.32971 1.95386 1.67688 1.89758 2.01917 1.78699C2.36987 1.67383 2.65393 1.54858 2.86328 1.41504C3.1084 1.25842 3.32812 1.11694 3.51599 0.994385C3.82092 0.795532 3.97876 0.72876 4.14233 0.72876C4.55798 0.72876 4.94678 0.799072 5.29773 0.937744C5.64966 1.07715 5.9541 1.2688 6.20288 1.50659C6.4408 1.73413 6.65271 2.0105 6.83301 2.32776C7.00684 2.63367 7.14746 2.95251 7.25085 3.27563C7.35095 3.5885 7.43469 3.93042 7.49963 4.29236C7.56372 4.65149 7.60754 4.99158 7.62903 5.30322C7.65063 5.60791 7.66125 5.92578 7.66162 6.24829Z" fill="#2682FF"/>
</svg>
